<svg width="40" height="40" viewBox="0 0 40 40" fill="none" xmlns="http://www.w3.org/2000/svg">
<circle cx="20" cy="20" r="20" fill="white"/>
<path fill-rule="evenodd" clip-rule="evenodd" d="M5.53594 28.339C4.96032 28.339 4.61057 27.6468 4.84374 27.0638L12.4799 12.6076C12.9389 11.7988 13.6384 11.3325 14.5638 11.3325H18.0248C18.6004 11.3325 18.9502 12.0247 18.717 12.6076L11.0882 27.0638C10.6291 27.8726 9.92964 28.339 9.00427 28.339H5.53594Z" fill="black"/>
<path fill-rule="evenodd" clip-rule="evenodd" d="M7.38733 28.3397H4.16675L5.60217 25.6218L7.38733 28.3397Z" fill="black"/>
<path fill-rule="evenodd" clip-rule="evenodd" d="M16.1747 11.3325H19.4171L18.0036 13.9629L16.1747 11.3325Z" fill="black"/>
<path fill-rule="evenodd" clip-rule="evenodd" d="M35.1408 27.1815L34.332 25.7971L29.5885 17.0097L28.8963 15.7346L28.2041 16.8932L26.3534 20.2449C26.0036 20.9371 26.0036 21.8625 26.3534 22.6713L28.7797 27.065C29.2388 27.8738 29.9383 28.3401 30.8637 28.3401H32.9476H34.4486H35.833L35.1408 27.1815Z" fill="black"/>
<path fill-rule="evenodd" clip-rule="evenodd" d="M18.6077 28.339H15.1393C14.5637 28.339 14.214 27.6468 14.4471 27.0638L22.0833 12.6076C22.5423 11.7988 23.2418 11.3325 24.1672 11.3325H27.6355C28.2111 11.3325 28.5609 12.0247 28.3277 12.6076L20.6843 27.0638C20.2252 27.8726 19.533 28.339 18.6077 28.339Z" fill="black"/>
<path fill-rule="evenodd" clip-rule="evenodd" d="M16.983 28.3379H13.7697L15.1541 25.7075L16.983 28.3379Z" fill="black"/>
<path fill-rule="evenodd" clip-rule="evenodd" d="M25.7781 11.3325H28.9914L27.5632 14.0431L25.7781 11.3325Z" fill="black"/>
</svg>
