<svg width="18" height="18" viewBox="0 0 18 18" fill="none" xmlns="http://www.w3.org/2000/svg">
<circle cx="9" cy="9" r="9" fill="white"/>
<path fill-rule="evenodd" clip-rule="evenodd" d="M2.49112 12.7525C2.23209 12.7525 2.0747 12.441 2.17963 12.1787L5.61589 5.67341C5.82246 5.30946 6.13723 5.09961 6.55365 5.09961H8.11111C8.37015 5.09961 8.52753 5.4111 8.42261 5.67341L4.98962 12.1787C4.78305 12.5427 4.46828 12.7525 4.05186 12.7525H2.49112Z" fill="#FF6400"/>
<path fill-rule="evenodd" clip-rule="evenodd" d="M3.32426 12.7528H1.875L2.52094 11.5298L3.32426 12.7528Z" fill="#FF6400"/>
<path fill-rule="evenodd" clip-rule="evenodd" d="M7.27856 5.09961H8.73766L8.10156 6.28328L7.27856 5.09961Z" fill="#FF6400"/>
<path fill-rule="evenodd" clip-rule="evenodd" d="M15.8133 12.2317L15.4494 11.6087L13.3148 7.65437L13.0033 7.08057L12.6918 7.60191L11.859 9.11019C11.7016 9.42169 11.7016 9.8381 11.859 10.2021L12.9509 12.1792C13.1574 12.5432 13.4722 12.753 13.8886 12.753H14.8264H15.5018H16.1248L15.8133 12.2317Z" fill="black"/>
<path fill-rule="evenodd" clip-rule="evenodd" d="M8.3734 12.7525H6.81265C6.55362 12.7525 6.39624 12.441 6.50116 12.1787L9.93742 5.67341C10.144 5.30946 10.4588 5.09961 10.8752 5.09961H12.4359C12.695 5.09961 12.8523 5.4111 12.7474 5.67341L9.30788 12.1787C9.10131 12.5427 8.78982 12.7525 8.3734 12.7525Z" fill="#00D8E2"/>
<path fill-rule="evenodd" clip-rule="evenodd" d="M7.64227 12.752H6.19629L6.81928 11.5684L7.64227 12.752Z" fill="#00D8E2"/>
<path fill-rule="evenodd" clip-rule="evenodd" d="M11.6001 5.09961H13.0461L12.4034 6.31935L11.6001 5.09961Z" fill="#00D8E2"/>
</svg>
