<svg width="19" height="18" viewBox="0 0 19 18" fill="none" xmlns="http://www.w3.org/2000/svg">
<circle cx="9.5" cy="9" r="9" fill="#00D8E2"/>
<path fill-rule="evenodd" clip-rule="evenodd" d="M2.99112 12.7525C2.73209 12.7525 2.5747 12.441 2.67963 12.1787L6.11589 5.67341C6.32246 5.30946 6.63723 5.09961 7.05365 5.09961H8.61111C8.87015 5.09961 9.02753 5.4111 8.92261 5.67341L5.48962 12.1787C5.28305 12.5427 4.96828 12.7525 4.55186 12.7525H2.99112Z" fill="white"/>
<path fill-rule="evenodd" clip-rule="evenodd" d="M3.82426 12.7528H2.375L3.02094 11.5298L3.82426 12.7528Z" fill="white"/>
<path fill-rule="evenodd" clip-rule="evenodd" d="M7.77856 5.09961H9.23766L8.60156 6.28328L7.77856 5.09961Z" fill="white"/>
<path fill-rule="evenodd" clip-rule="evenodd" d="M16.3133 12.2317L15.9494 11.6087L13.8148 7.65437L13.5033 7.08057L13.1918 7.60191L12.359 9.11019C12.2016 9.42169 12.2016 9.8381 12.359 10.2021L13.4509 12.1792C13.6574 12.5432 13.9722 12.753 14.3886 12.753H15.3264H16.0018H16.6248L16.3133 12.2317Z" fill="white"/>
<path fill-rule="evenodd" clip-rule="evenodd" d="M8.8734 12.7525H7.31265C7.05362 12.7525 6.89624 12.441 7.00116 12.1787L10.4374 5.67341C10.644 5.30946 10.9588 5.09961 11.3752 5.09961H12.9359C13.195 5.09961 13.3523 5.4111 13.2474 5.67341L9.80788 12.1787C9.60131 12.5427 9.28982 12.7525 8.8734 12.7525Z" fill="white"/>
<path fill-rule="evenodd" clip-rule="evenodd" d="M8.14227 12.752H6.69629L7.31928 11.5684L8.14227 12.752Z" fill="white"/>
<path fill-rule="evenodd" clip-rule="evenodd" d="M12.1001 5.09961H13.5461L12.9034 6.31935L12.1001 5.09961Z" fill="white"/>
</svg>
