<svg aria-hidden="true" style="position: absolute; width: 0; height: 0; overflow: hidden;" version="1.1" xmlns="http://www.w3.org/2000/svg" xmlns:xlink="http://www.w3.org/1999/xlink">
<defs>
<symbol id="icon-download" viewBox="0 0 32 32">
<title>download</title>
<path d="M24 22h-16c-1.2 0-2 0.8-2 2s0.8 2 2 2h16c1.2 0 2-0.8 2-2s-0.8-2-2-2z"></path>
<path d="M24.4 14.4c0.8-0.8 0.8-2 0-2.8s-2-0.8-2.8 0l-3.6 3.6v-7.4c0-1-0.8-1.8-2-1.8s-2 0.8-2 1.8v7.4l-3.6-3.6c-0.8-0.8-2-0.8-2.8 0s-0.8 2 0 2.8l7 7c0.4 0.4 0.8 0.6 1.4 0.6s1-0.2 1.4-0.6l7-7z"></path>
</symbol>
<symbol id="icon-left-back" viewBox="0 0 32 32">
<title>left-back</title>
<path d="M25 15h-16.6l7.3-7.3c0.4-0.4 0.4-1 0-1.4s-1-0.4-1.4 0l-8.9 9c-0.4 0.4-0.4 1 0 1.4h0.1l8.9 9c0.2 0.2 0.5 0.3 0.7 0.3 0.3 0 0.5-0.1 0.7-0.3 0.4-0.4 0.4-1 0-1.4l-7.3-7.3h16.5c0.6 0 1-0.4 1-1s-0.5-1-1-1z"></path>
</symbol>
<symbol id="icon-loading-small" viewBox="0 0 32 32">
<title>loading-small</title>
<path d="M16 6.934c-5.005 0.003-9.061 4.060-9.061 9.066 0 5.007 4.059 9.066 9.066 9.066 3.695 0 6.874-2.211 8.286-5.382l0.023-0.058c0.243-0.594 0.816-1.005 1.485-1.005 0.884 0 1.6 0.716 1.6 1.6 0 0.249-0.057 0.484-0.158 0.694l0.004-0.010c-1.941 4.37-6.244 7.363-11.245 7.363-6.776 0-12.269-5.493-12.269-12.269s5.493-12.269 12.269-12.269c5.001 0 9.304 2.993 11.214 7.285l0.031 0.078c0.097 0.2 0.154 0.436 0.154 0.685 0 0.884-0.716 1.6-1.6 1.6-0.669 0-1.242-0.411-1.481-0.994l-0.004-0.011c-1.436-3.229-4.615-5.44-8.311-5.44-0.001 0-0.002 0-0.003 0h0zM26.666 2.666c0.884 0 1.6 0.716 1.6 1.6v0 7.469c0 0.884-0.716 1.6-1.6 1.6v0h-7.466c-0.884 0-1.6-0.716-1.6-1.6s0.716-1.6 1.6-1.6v0h5.866v-5.869c0-0.884 0.716-1.6 1.6-1.6v0z"></path>
</symbol>
<symbol id="icon-success-small" viewBox="0 0 32 32">
<title>success-small</title>
<path d="M27.798 8.467c0.29 0.29 0.47 0.69 0.47 1.133s-0.18 0.843-0.47 1.133l-13.869 13.866c-0.29 0.289-0.689 0.468-1.131 0.468s-0.842-0.179-1.131-0.468l-6.4-6.4c-0.278-0.287-0.449-0.68-0.449-1.112 0-0.884 0.716-1.6 1.6-1.6 0.432 0 0.824 0.171 1.112 0.45l5.27 5.267 12.736-12.736c0.29-0.289 0.689-0.468 1.131-0.468s0.842 0.179 1.131 0.468v0z"></path>
</symbol>
<symbol id="icon-failed-small" viewBox="0 0 32 32">
<title>failed-small</title>
<path d="M6.867 6.867c0.29-0.29 0.69-0.47 1.133-0.47s0.843 0.18 1.133 0.47l6.867 6.87 6.867-6.87c0.29-0.29 0.69-0.469 1.133-0.469 0.885 0 1.602 0.717 1.602 1.602 0 0.442-0.179 0.843-0.469 1.133l-6.87 6.867 6.87 6.867c0.29 0.29 0.469 0.69 0.469 1.133 0 0.885-0.717 1.602-1.602 1.602-0.442 0-0.843-0.179-1.133-0.469l-6.867-6.87-6.867 6.87c-0.29 0.29-0.69 0.469-1.133 0.469-0.885 0-1.602-0.717-1.602-1.602 0-0.442 0.179-0.843 0.469-1.133l6.87-6.867-6.87-6.867c-0.29-0.29-0.47-0.69-0.47-1.133s0.18-0.843 0.47-1.133l0-0z"></path>
</symbol>
<symbol id="icon-step-refresh" viewBox="0 0 32 32">
<title>step-refresh</title>
<path d="M16 8c-4.417 0.002-7.996 3.583-7.996 8 0 4.418 3.582 8 8 8 3.261 0 6.066-1.951 7.312-4.749l0.020-0.051c0.303-0.743 1.020-1.256 1.857-1.256 1.105 0 2 0.895 2 2 0 0.311-0.071 0.606-0.198 0.868l0.005-0.012c-1.899 4.275-6.108 7.202-11 7.202-6.629 0-12.002-5.373-12.002-12.002s5.373-12.002 12.002-12.002c4.892 0 9.101 2.927 10.97 7.126l0.030 0.076c0.091 0.22 0.143 0.476 0.143 0.744 0 1.105-0.895 2-2 2-0.793 0-1.479-0.462-1.802-1.132l-0.005-0.012c-1.267-2.849-4.072-4.8-7.333-4.8-0.001 0-0.002 0-0.003 0h0zM26 3c1.105 0 2 0.895 2 2v0 7c0 1.105-0.895 2-2 2v0h-7c-1.105 0-2-0.895-2-2s0.895-2 2-2v0h5v-5c0-1.105 0.895-2 2-2v0z"></path>
</symbol>
<symbol id="icon-step-success" viewBox="0 0 32 32">
<title>step-success</title>
<path d="M27.414 8.586c0.362 0.362 0.586 0.862 0.586 1.414s-0.224 1.052-0.586 1.414l-13 13c-0.362 0.362-0.862 0.586-1.414 0.586s-1.052-0.224-1.414-0.586l-6-6c-0.347-0.359-0.561-0.849-0.561-1.389 0-1.105 0.895-2 2-2 0.54 0 1.030 0.214 1.39 0.562l-0.001-0.001 4.586 4.586 11.586-11.586c0.362-0.362 0.862-0.586 1.414-0.586s1.052 0.224 1.414 0.586v0z"></path>
</symbol>
<symbol id="icon-step-failed" viewBox="0 0 32 32">
<title>step-failed</title>
<path d="M25.414 6.586c0.362 0.362 0.586 0.862 0.586 1.414s-0.224 1.052-0.586 1.414l-16 16c-0.359 0.347-0.849 0.561-1.389 0.561-1.105 0-2-0.895-2-2 0-0.54 0.214-1.030 0.562-1.39l-0.001 0.001 16-16c0.362-0.362 0.862-0.586 1.414-0.586s1.052 0.224 1.414 0.586v0zM25.414 25.414c-0.362 0.362-0.862 0.586-1.414 0.586s-1.052-0.224-1.414-0.586l-16-16c-0.347-0.359-0.561-0.849-0.561-1.389 0-1.105 0.895-2 2-2 0.54 0 1.030 0.214 1.39 0.562l-0.001-0.001 16 16c0.362 0.362 0.586 0.862 0.586 1.414s-0.224 1.052-0.586 1.414v0z"></path>
</symbol>
<symbol id="icon-medium" viewBox="0 0 32 32">
<title>medium</title>
<path d="M9.025 25.030c4.984 0 9.025-4.041 9.025-9.025s-4.041-9.025-9.025-9.025v0c-4.984 0-9.025 4.041-9.025 9.025s4.041 9.025 9.025 9.025v0zM23.385 24.62c2.492 0 4.512-3.856 4.512-8.616 0-4.758-2.020-8.616-4.512-8.616s-4.512 3.858-4.512 8.616c0 4.76 2.020 8.618 4.512 8.618zM32.001 16.004c0 4.204-0.728 7.614-1.626 7.614-0.9 0-1.628-3.41-1.628-7.614s0.728-7.612 1.628-7.612c0.898 0 1.626 3.408 1.626 7.612z"></path>
</symbol>
<symbol id="icon-forum" viewBox="0 0 32 32">
<title>forum</title>
<path d="M29.2 16c-0.003-7.288-5.912-13.195-13.2-13.195-7.29 0-13.2 5.91-13.2 13.2 0 2.309 0.593 4.479 1.634 6.367l-0.034-0.068-0.914 4.5c-0.025 0.119-0.040 0.256-0.040 0.396 0 1.104 0.895 2 2 2h10.558c7.288-0.002 13.196-5.911 13.196-13.2v0z"></path>
</symbol>
<symbol id="icon-code" viewBox="0 0 32 32">
<title>code</title>
<path d="M32 16c-0 0.552-0.224 1.052-0.586 1.414l-8 8c-0.359 0.347-0.849 0.561-1.389 0.561-1.105 0-2-0.895-2-2 0-0.54 0.214-1.030 0.562-1.39l-0.001 0.001 6.586-6.586-6.586-6.586c-0.377-0.364-0.611-0.874-0.611-1.439 0-1.105 0.895-2 2-2 0.564 0 1.074 0.234 1.438 0.61l0.001 0.001 8 8c0.362 0.362 0.586 0.862 0.586 1.414v0zM11.414 6.586c0.362 0.362 0.586 0.862 0.586 1.414s-0.224 1.052-0.586 1.414l-6.586 6.586 6.586 6.586c0.377 0.364 0.611 0.874 0.611 1.439 0 1.105-0.895 2-2 2-0.565 0-1.074-0.234-1.438-0.61l-0.001-0.001-8-8c-0.362-0.362-0.586-0.862-0.586-1.414s0.224-1.052 0.586-1.414l8-8c0.362-0.362 0.862-0.586 1.414-0.586s1.052 0.224 1.414 0.586v0z"></path>
</symbol>
<symbol id="icon-twitter" viewBox="0 0 32 32">
<title>twitter</title>
<path d="M31 6.696c-1.032 0.463-2.228 0.798-3.482 0.944l-0.058 0.005c1.271-0.765 2.227-1.943 2.692-3.345l0.012-0.043c-1.122 0.68-2.43 1.196-3.823 1.473l-0.077 0.013c-1.122-1.198-2.713-1.944-4.479-1.944-0.005 0-0.010 0-0.016 0h0.001c-3.394 0-6.146 2.752-6.146 6.146 0 0.001 0 0.003 0 0.004v-0c0 0.476 0.056 0.952 0.15 1.41-5.124-0.269-9.629-2.707-12.649-6.405l-0.025-0.031c-0.534 0.916-0.836 1.962-0.836 3.106 0 2.134 1.086 4.016 2.74 5.122-1.027-0.041-1.979-0.326-2.811-0.798l0.031 0.016v0.076c0 0.003 0 0.006 0 0.009 0 2.963 2.096 5.436 4.886 6.018l0.040 0.007c-0.485 0.131-1.042 0.208-1.617 0.21h-0.001c-0.4 0-0.78-0.040-1.16-0.094 0.812 2.46 3.068 4.214 5.74 4.266l0.006 0c-2.073 1.638-4.724 2.628-7.606 2.628-0.009 0-0.018 0-0.028-0h0.001c-0.516 0-0.992-0.020-1.486-0.076 2.658 1.73 5.91 2.758 9.403 2.758 0.014 0 0.027-0 0.041-0h-0.002c11.306 0 17.494-9.366 17.494-17.496 0-0.268 0-0.534-0.020-0.8 1.204-0.89 2.226-1.941 3.055-3.136l0.029-0.044z"></path>
</symbol>
<symbol id="icon-doc" viewBox="0 0 32 32">
<title>doc</title>
<path d="M28 3.4h-5c-2.8 0-5.4 1.4-7 3.4-1.6-2-4.2-3.4-7-3.4h-5c-1.2 0-2 0.8-2 2v19.2c0 1.2 0.8 2 2 2h8c1.4 0 1.6 0.4 2 1s0.6 1 2 1 1.6-0.4 2-1 0.6-1 2-1h8c1.2 0 2-0.8 2-2v-19.2c0-1.2-0.8-2-2-2zM26 22.6h-6c-0.8 0-1.4 0.2-2 0.4v-10.6c0-2.8 2.2-5 5-5h3v15.2z"></path>
</symbol>
<symbol id="icon-telegram" viewBox="0 0 32 32">
<title>telegram</title>
<path d="M25.77 7.696c-0.704-0.19-1.112 0.232-1.562 0.514-13.712 8.324-18.544 11.415-23.363 14.525l8.547-5.165c-0.281 0.211-0.636 0.338-1.021 0.338-0.217 0-0.425-0.041-0.616-0.114l0.012 0.004c-1.852-0.614-3.724-1.156-5.582-1.732-0.648-0.206-1.584-0.254-1.584-1.1 0-0.844 0.872-1.096 1.548-1.356 4.13-1.588 8.244-3.166 12.346-4.74 4.696-1.8 9.39-3.616 14.078-5.41 0.74-0.282 1.52-0.818 2.294-0.106 0.774 0.71 0.514 1.57 0.346 2.392-0.704 3.456-1.458 6.906-2.196 10.36 1.507-8.767 0.685-5.021-0.127-1.27l-2.245 12.378c-0.408 1.908-1.408 2.288-2.98 1.134-1.87-1.366-3.77-2.696-5.572-4.16-0.88-0.704-1.408-0.634-2.112 0.184-0.704 0.816-1.578 1.54-2.38 2.3-0.218 0.2-0.48 0.424-0.78 0.268-0.304-0.154-0.212-0.444-0.22-0.704-0.034-1.872-0.048-3.752-0.126-5.63 0.009-0.491 0.268-0.919 0.654-1.165l0.006-0.003 11.764-10.664c0.338-0.282 0.724-0.5 0.872-1.078z"></path>
</symbol>
<symbol id="icon-discord" viewBox="0 0 32 32">
<title>discord</title>
<path d="M8.030 26.816c0.13 0 0.286 0.048 0.376-0.062 0.588-0.686 1.17-1.41 1.774-2.15-1.728-0.498-3.198-1.432-4.333-2.677l-0.007-0.007c-0.070-0.164 0-0.186 0.142-0.144 0.9 0.486 1.83 0.92 2.78 1.3 3.12 1.226 6.496 1.66 9.826 1.26 2.925-0.405 5.56-1.354 7.903-2.744l-0.097 0.053c0.15 0.040 0 0.11 0 0.164s-0.164 0.212-0.254 0.308c-1.041 1.064-2.34 1.871-3.796 2.319l-0.064 0.017c-0.432 0.136-0.446 0.266-0.152 0.58 0.432 0.48 0.842 0.98 1.232 1.494 0.114 0.174 0.308 0.288 0.529 0.288 0.036 0 0.071-0.003 0.105-0.009l-0.004 0c2.579-0.129 4.906-1.112 6.727-2.669l-0.015 0.013c0.98-0.85 1.554-1.788 1.19-3.122-0.002-0.018-0.003-0.038-0.003-0.059s0.001-0.041 0.003-0.062l-0 0.003c-0.323-4.403-1.35-8.483-2.97-12.248l0.094 0.246c-0.531-1.474-1.597-2.646-2.957-3.305l-0.035-0.015c-1.521-0.776-3.288-1.336-5.155-1.581l-0.083-0.009c-0.32 0-0.636 0.048-0.684 0.356s0.328 0.226 0.52 0.294c1.983 0.628 3.709 1.488 5.268 2.57l-0.064-0.042c0 0.074 0.11 0.108 0.122 0.19-0.080-0.048-0.178 0-0.26-0.054-0.212-0.082-0.424-0.158-0.636-0.254-2.712-1.213-5.878-1.92-9.209-1.92-1.485 0-2.936 0.14-4.343 0.409l0.144-0.023c-2.16 0.392-4.26 1.070-6.244 2.014-0.048 0-0.096 0.048-0.138 0-0.040-0.048 0-0.082 0-0.116 1.764-1.262 3.814-2.273 6.019-2.923l0.145-0.037c0.136-0.040 0.37 0 0.348-0.21-0.020-0.214-0.24-0.254-0.444-0.254h-0.234c-2.635 0.317-4.994 1.297-6.966 2.767l0.038-0.027c-0.166 0.125-0.299 0.286-0.387 0.472l-0.003 0.008c-2.22 4.341-3.595 9.445-3.774 14.851l-0.002 0.059c-0.020 0.416 0.12 0.824 0.398 1.136 1.871 2.136 4.586 3.493 7.618 3.548l0.009 0zM20.942 14.14c1.534 0.086 2.745 1.352 2.745 2.9 0 0.062-0.002 0.124-0.006 0.185l0-0.008c0 0.008 0 0.018 0 0.029 0 1.572-1.241 2.854-2.796 2.921l-0.006 0c-1.561-0.105-2.787-1.396-2.787-2.974 0-0.023 0-0.047 0.001-0.070l-0 0.003c-0.001-0.033-0.002-0.071-0.002-0.11 0-1.579 1.273-2.861 2.849-2.876h0.001zM10.848 14.14c1.577 0.019 2.849 1.302 2.849 2.882 0 0.027-0 0.055-0.001 0.082l0-0.004c0.002 0.038 0.003 0.082 0.003 0.126 0 1.573-1.234 2.859-2.787 2.94l-0.007 0c-1.547-0.066-2.777-1.336-2.777-2.894 0-0.044 0.001-0.089 0.003-0.133l-0 0.006c-0.003-0.052-0.005-0.113-0.005-0.174 0-1.528 1.207-2.774 2.72-2.838l0.006-0v0.006z"></path>
</symbol>
<symbol id="icon-add-wallet" viewBox="0 0 32 32">
<title>add-wallet</title>
<path d="M24 9h-2v-1c0-2.8-2.2-5-5-5h-9c-2.8 0-5 2.2-5 5v16c0 2.8 2.2 5 5 5h16c2.8 0 5-2.2 5-5v-10c0-2.8-2.2-5-5-5zM5 8c0-1.6 1.4-3 3-3h9c1.6 0 3 1.4 3 3v1h-12c-1.2 0-2.2 0.4-3 1v-2zM27 18h-8c-0.6 0-1 0.4-1 1s0.4 1 1 1h8v4c0 1.6-1.4 3-3 3h-16c-1.6 0-3-1.4-3-3v-10c0-1.6 1.4-3 3-3h16c1.6 0 3 1.4 3 3v4z"></path>
</symbol>
<symbol id="icon-redeem" viewBox="0 0 32 32">
<title>redeem</title>
<path d="M27.4 14.6l-10-10c-0.8-0.8-2-0.8-2.8 0s-0.8 2 0 2.8l6.6 6.6h-15.2c-1.2 0-2 0.8-2 2s0.8 2 2 2h15.2l-6.6 6.6c-0.8 0.8-0.8 2 0 2.8s2 0.8 2.8 0l10-10c0.8-0.8 0.8-2 0-2.8z"></path>
</symbol>
<symbol id="icon-wrong-network" viewBox="0 0 32 32">
<title>wrong-network</title>
<path d="M16 3.2c-7.040 0-12.8 5.76-12.8 12.8s5.76 12.8 12.8 12.8 12.8-5.76 12.8-12.8-5.76-12.8-12.8-12.8zM16 27.040c-6.080 0-11.040-4.96-11.040-11.040s4.96-11.040 11.040-11.040 11.040 4.96 11.040 11.040-4.96 11.040-11.040 11.040zM14.4 20.8c0 0.884 0.716 1.6 1.6 1.6s1.6-0.716 1.6-1.6v0c0-0.884-0.716-1.6-1.6-1.6s-1.6 0.716-1.6 1.6v0zM16 17.6c0.48 0 0.8-0.32 0.8-0.8l0.64-5.6c0.16-0.8-0.64-1.6-1.44-1.6s-1.6 0.8-1.44 1.6l0.64 5.6c0 0.48 0.32 0.8 0.8 0.8z"></path>
</symbol>
<symbol id="icon-checkbox-selected" viewBox="0 0 32 32">
<title>checkbox-selected</title>
<path d="M25.757 8.659c0.56 0.491 0.912 1.209 0.912 2.008 0 0.675-0.251 1.291-0.664 1.76l0.003-0.003-9.333 10.667c-0.491 0.559-1.208 0.91-2.007 0.91-0.737 0-1.404-0.299-1.887-0.782l-5.333-5.333c-0.463-0.479-0.749-1.132-0.749-1.853 0-1.473 1.194-2.667 2.667-2.667 0.72 0 1.373 0.285 1.853 0.749l-0.001-0.001 3.317 3.317 7.456-8.523c0.491-0.56 1.209-0.912 2.008-0.912 0.675 0 1.291 0.251 1.76 0.664l-0.003-0.003z"></path>
</symbol>
<symbol id="icon-calendar" viewBox="0 0 32 32">
<title>calendar</title>
<path d="M11.2 1.6c0.884 0 1.6 0.716 1.6 1.6v0 1.6h6.4v-1.6c0-0.884 0.716-1.6 1.6-1.6s1.6 0.716 1.6 1.6v1.6h2.4c2.651 0 4.8 2.149 4.8 4.8v0 14.4c0 2.651-2.149 4.8-4.8 4.8v0h-17.6c-2.651 0-4.8-2.149-4.8-4.8v0-14.4c0-2.651 2.149-4.8 4.8-4.8v0h2.4v-1.6c0-0.884 0.716-1.6 1.6-1.6v0zM20.8 8h-13.6c-0.884 0-1.6 0.716-1.6 1.6v0 3.2h20.8v-3.2c0-0.884-0.716-1.6-1.6-1.6v0h-4zM5.6 16v8c0 0.884 0.716 1.6 1.6 1.6h17.6c0.884 0 1.6-0.716 1.6-1.6v0-8h-20.8z"></path>
</symbol>
<symbol id="icon-input-close" viewBox="0 0 32 32">
<title>input-close</title>
<path d="M16 2c-7.8 0-14 6.2-14 14s6.2 14 14 14 14-6.2 14-14-6.2-14-14-14zM22 19.2c0.8 0.8 0.8 2 0 2.8s-2 0.8-2.8 0l-3.2-3.2-3.2 3.2c-0.8 0.8-2 0.8-2.8 0s-0.8-2 0-2.8l3.2-3.2-3.2-3.2c-0.8-0.8-0.8-2 0-2.8s2-0.8 2.8 0l3.2 3.2 3.2-3.2c0.8-0.8 2-0.8 2.8 0s0.8 2 0 2.8l-3.2 3.2 3.2 3.2z"></path>
</symbol>
<symbol id="icon-rewards" viewBox="0 0 35 32">
<title>rewards</title>
<path d="M26 8h-2c0.2-0.4 0.2-0.6 0.2-1 0-0.8-0.2-1.6-0.8-2-0.6-0.6-1.4-1-2.4-1-1.4 0-2.6 0.6-3.6 1.4-0.4 0.6-0.8 1-1.2 1.6-0.4-0.6-1-1-1.4-1.6-1-0.8-2.2-1.4-3.6-1.4-1 0-1.8 0.4-2.4 1-0.6 0.4-0.8 1.2-0.8 2 0 0.4 0 0.6 0.2 1h-2.2c-1.6 0-3 1.4-3 3v2c0 1.4 0.8 2.4 2 2.8v9.2c0 1.6 1.4 3 3 3h16c1.6 0 3-1.4 3-3v-9.2c1.2-0.4 2-1.6 2-2.8v-2c0-1.6-1.4-3-3-3zM10.2 6.4c0.2-0.2 0.6-0.4 1-0.4 0.8 0 1.4 0.4 2.2 1 0.4 0.4 0.8 0.6 1 1h-3.2c-0.4 0-0.8-0.2-1-0.4s-0.2-0.4-0.2-0.6 0-0.4 0.2-0.6zM15 26h-7c-0.6 0-1-0.4-1-1v-9h8v10zM15 14h-9c-0.6 0-1-0.4-1-1v-2c0-0.6 0.4-1 1-1h9v4zM18.8 7c0.8-0.6 1.6-1 2.2-1s0.8 0.2 1 0.4c0.2 0.2 0.2 0.4 0.2 0.6s0 0.4-0.2 0.6c-0.2 0.2-0.4 0.4-1 0.4h-3.2l1-1zM25 25c0 0.6-0.4 1-1 1h-7v-10h8v9zM27 13c0 0.6-0.4 1-1 1h-9v-4h9c0.6 0 1 0.4 1 1v2z"></path>
</symbol>
<symbol id="icon-change-collateral" viewBox="0 0 32 32">
<title>change-collateral</title>
<path d="M3 10c0-3.866 3.134-7 7-7v0h12c3.866 0 7 3.134 7 7v0 12c0 3.866-3.134 7-7 7v0h-12c-3.866 0-7-3.134-7-7v0-12zM10 5c-2.761 0-5 2.239-5 5v0 12c0 2.761 2.239 5 5 5v0h12c2.761 0 5-2.239 5-5v0-12c0-2.761-2.239-5-5-5v0h-12zM10 16c0-0.552 0.448-1 1-1v0h10c0.552 0 1 0.448 1 1s-0.448 1-1 1v0h-10c-0.552 0-1-0.448-1-1v0zM16 10c0.552 0 1 0.448 1 1v0 10c0 0.552-0.448 1-1 1s-1-0.448-1-1v0-10c0-0.552 0.448-1 1-1v0z"></path>
</symbol>
<symbol id="icon-transformation" viewBox="0 0 32 32">
<title>transformation</title>
<path d="M3 7c0-0.552 0.448-1 1-1v0h16c4.971 0 9 4.029 9 9v0 2c0 0.552-0.448 1-1 1s-1-0.448-1-1v0-2c0-3.866-3.134-7-7-7v0h-16c-0.552 0-1-0.448-1-1v0zM12 24h14.002c0.552 0 1 0.448 1 1s-0.448 1-1 1v0h-14.002c-4.971 0-9-4.029-9-9v0-2c0-0.552 0.448-1 1-1s1 0.448 1 1v0 2c0 3.866 3.134 7 7 7v0zM3.066 6.2l5.334-4c0.165-0.125 0.374-0.2 0.6-0.2 0.552 0 1 0.448 1 1v0 8c0 0.552-0.448 1-1 1-0.226 0-0.435-0.075-0.603-0.202l0.002 0.002-5.334-4c-0.244-0.184-0.4-0.474-0.4-0.8s0.156-0.616 0.397-0.798l0.002-0.002zM28.934 25.8l-5.334 4c-0.165 0.125-0.374 0.2-0.6 0.2-0.552 0-1-0.448-1-1v-8c0-0.552 0.448-1 1-1 0.226 0 0.435 0.075 0.602 0.202l-0.003-0.002 5.334 4c0.244 0.184 0.4 0.474 0.4 0.8s-0.156 0.616-0.398 0.798l-0.003 0.002z"></path>
</symbol>
<symbol id="icon-add-token" viewBox="0 0 32 32">
<title>add-token</title>
<path d="M18 8c0-1.105-0.895-2-2-2s-2 0.895-2 2v0 6h-6c-1.105 0-2 0.895-2 2s0.895 2 2 2v0h6v6c0 1.105 0.895 2 2 2s2-0.895 2-2v0-6h6c1.105 0 2-0.895 2-2s-0.895-2-2-2v0h-6v-6z"></path>
</symbol>
<symbol id="icon-popup-back" viewBox="0 0 32 32">
<title>popup-back</title>
<path d="M17.401 0.586c0.362 0.362 0.585 0.861 0.585 1.413s-0.224 1.051-0.585 1.413l-12.576 12.576 12.576 12.576c0.376 0.364 0.61 0.873 0.61 1.437 0 1.104-0.895 1.998-1.998 1.998-0.564 0-1.074-0.234-1.437-0.61l-0.001-0.001-13.989-13.989c-0.362-0.362-0.585-0.861-0.585-1.413s0.224-1.051 0.585-1.413l13.989-13.989c0.362-0.362 0.861-0.585 1.413-0.585s1.051 0.224 1.413 0.585v0zM0 15.988c0-1.104 0.895-1.998 1.998-1.998v0h27.978c1.104 0 1.998 0.895 1.998 1.998s-0.895 1.998-1.998 1.998h-27.978c-1.104 0-1.998-0.895-1.998-1.998v0z"></path>
</symbol>
<symbol id="icon-popup-close" viewBox="0 0 32 32">
<title>popup-close</title>
<path d="M18.8 16l11.6-11.6c0.8-0.8 0.8-2 0-2.8s-2-0.8-2.8 0l-11.6 11.6-11.6-11.6c-0.8-0.8-2-0.8-2.8 0s-0.8 2 0 2.8l11.6 11.6-11.6 11.6c-0.8 0.8-0.8 2 0 2.8s2 0.8 2.8 0l11.6-11.6 11.6 11.6c0.8 0.8 2 0.8 2.8 0s0.8-2 0-2.8l-11.6-11.6z"></path>
</symbol>
<symbol id="icon-view-large" viewBox="0 0 32 32">
<title>view-large</title>
<path d="M11 9c0-1.105 0.895-2 2-2v0h10c1.105 0 2 0.895 2 2v0 10c0 1.105-0.895 2-2 2s-2-0.895-2-2v0-5.172l-10.586 10.586c-0.359 0.347-0.849 0.561-1.389 0.561-1.105 0-2-0.895-2-2 0-0.54 0.214-1.030 0.562-1.39l-0.001 0.001 10.586-10.586h-5.172c-1.105 0-2-0.895-2-2v0z"></path>
</symbol>
<symbol id="icon-copy" viewBox="0 0 32 32">
<title>copy</title>
<path d="M13 18c0-2.761 2.239-5 5-5v0h6c2.761 0 5 2.239 5 5v0 6c0 2.761-2.239 5-5 5v0h-6c-2.761 0-5-2.239-5-5v0-6zM18 15c-1.657 0-3 1.343-3 3v0 6c0 1.657 1.343 3 3 3v0h6c1.657 0 3-1.343 3-3v0-6c0-1.657-1.343-3-3-3v0h-6zM3 8c0-2.761 2.239-5 5-5v0h6c2.761 0 5 2.239 5 5v0 1c0 0.552-0.448 1-1 1s-1-0.448-1-1v0-1c0-1.657-1.343-3-3-3v0h-6c-1.657 0-3 1.343-3 3v0 6c0 1.657 1.343 3 3 3v0h1c0.552 0 1 0.448 1 1s-0.448 1-1 1v0h-1c-2.761 0-5-2.239-5-5v0-6z"></path>
</symbol>
<symbol id="icon-copied" viewBox="0 0 32 32">
<title>copied</title>
<path d="M16 5c-6.074 0.002-10.997 4.926-10.997 11 0 6.075 4.925 11 11 11s11-4.925 11-11c0-0.901-0.108-1.777-0.313-2.615l0.016 0.075c-0.014-0.063-0.023-0.136-0.023-0.211 0-0.552 0.448-1 1-1 0.464 0 0.854 0.316 0.967 0.744l0.002 0.007c0.223 0.9 0.35 1.934 0.35 2.997 0 7.18-5.82 13-13 13s-13-5.82-13-13c0-7.18 5.82-13 13-13 1.804 0 3.522 0.367 5.083 1.031l-0.085-0.032c0.364 0.155 0.615 0.51 0.615 0.923 0 0.552-0.448 1-1 1-0.139 0-0.271-0.028-0.392-0.080l0.007 0.002c-1.245-0.532-2.693-0.842-4.213-0.842-0.006 0-0.012 0-0.018 0h0.001zM27.688 5.608c0.192 0.183 0.311 0.44 0.311 0.725 0 0.266-0.104 0.508-0.274 0.687l0-0-12 12.668c-0.183 0.193-0.441 0.313-0.727 0.313-0.276 0-0.526-0.112-0.707-0.293l-4-4c-0.181-0.181-0.293-0.431-0.293-0.708 0-0.553 0.448-1.001 1.001-1.001 0.277 0 0.527 0.112 0.708 0.293v0l3.272 3.274 11.294-11.92c0.183-0.193 0.441-0.313 0.727-0.313 0.266 0 0.508 0.104 0.687 0.274l-0-0z"></path>
</symbol>
<symbol id="icon-view" viewBox="0 0 32 32">
<title>view</title>
<path d="M10 9c-2.761 0-5 2.239-5 5v0 8c0 2.761 2.239 5 5 5v0h8c2.761 0 5-2.239 5-5v0-4c0-0.552 0.448-1 1-1s1 0.448 1 1v0 4c0 3.866-3.134 7-7 7v0h-8c-3.866 0-7-3.134-7-7v0-8c0-3.866 3.134-7 7-7v0h4c0.552 0 1 0.448 1 1s-0.448 1-1 1v0h-4zM27.708 4.292c0.181 0.181 0.294 0.431 0.294 0.708s-0.112 0.527-0.294 0.708l-13 13c-0.181 0.181-0.431 0.293-0.708 0.293-0.553 0-1.001-0.448-1.001-1.001 0-0.276 0.112-0.527 0.293-0.708v0l13-13c0.181-0.181 0.431-0.294 0.708-0.294s0.527 0.112 0.708 0.294l0 0zM18 4c0-0.552 0.448-1 1-1v0h9c0.552 0 1 0.448 1 1v0 9c0 0.552-0.448 1-1 1s-1-0.448-1-1v0-8h-8c-0.552 0-1-0.448-1-1v0z"></path>
</symbol>
<symbol id="icon-up" viewBox="0 0 32 32">
<title>up</title>
<path d="M16 9c-0.552 0-1.052 0.224-1.414 0.586l-8 8c-0.347 0.359-0.561 0.849-0.561 1.389 0 1.105 0.895 2 2 2 0.54 0 1.030-0.214 1.39-0.562l-0.001 0.001 6.586-6.586 6.586 6.586c0.359 0.347 0.849 0.561 1.389 0.561 1.105 0 2-0.895 2-2 0-0.54-0.214-1.030-0.562-1.39l0.001 0.001-8-8c-0.362-0.362-0.862-0.586-1.414-0.586h-0z"></path>
</symbol>
<symbol id="icon-down" viewBox="0 0 32 32">
<title>down</title>
<path d="M16 23c-0.552-0-1.052-0.224-1.414-0.586l-8-8c-0.347-0.359-0.561-0.849-0.561-1.389 0-1.105 0.895-2 2-2 0.54 0 1.030 0.214 1.39 0.562l-0.001-0.001 6.586 6.586 6.586-6.586c0.364-0.377 0.874-0.611 1.439-0.611 1.105 0 2 0.895 2 2 0 0.565-0.234 1.074-0.61 1.438l-0.001 0.001-8 8c-0.362 0.362-0.862 0.586-1.414 0.586h-0z"></path>
</symbol>
<symbol id="icon-left" viewBox="0 0 32 32">
<title>left</title>
<path d="M20.414 6.586c0.362 0.362 0.586 0.862 0.586 1.414s-0.224 1.052-0.586 1.414l-6.586 6.586 6.586 6.586c0.347 0.359 0.561 0.849 0.561 1.389 0 1.105-0.895 2-2 2-0.54 0-1.030-0.214-1.39-0.562l0.001 0.001-8-8c-0.362-0.362-0.586-0.862-0.586-1.414s0.224-1.052 0.586-1.414l8-8c0.362-0.362 0.862-0.586 1.414-0.586s1.052 0.224 1.414 0.586v0z"></path>
</symbol>
<symbol id="icon-right" viewBox="0 0 32 32">
<title>right</title>
<path d="M11.586 6.586c0.362-0.362 0.862-0.586 1.414-0.586s1.052 0.224 1.414 0.586l8 8c0.362 0.362 0.586 0.862 0.586 1.414s-0.224 1.052-0.586 1.414l-8 8c-0.359 0.347-0.849 0.561-1.389 0.561-1.105 0-2-0.895-2-2 0-0.54 0.214-1.030 0.562-1.39l-0.001 0.001 6.586-6.586-6.586-6.586c-0.362-0.362-0.586-0.862-0.586-1.414s0.224-1.052 0.586-1.414v0z"></path>
</symbol>
<symbol id="icon-vesting" viewBox="0 0 32 32">
<title>vesting</title>
<path d="M17.6 8c0-3.52 2.88-6.4 6.4-6.4h1.6c3.52 0 6.4 2.88 6.4 6.4v1.6c0 0.96-0.64 1.6-1.6 1.6s-1.6-0.64-1.6-1.6v-1.6c0-1.76-1.44-3.2-3.2-3.2h-1.6c-1.76 0-3.2 1.44-3.2 3.2v3.2h-3.2v-3.2zM12 20c0 1.325 1.075 2.4 2.4 2.4s2.4-1.075 2.4-2.4v0c0-1.325-1.075-2.4-2.4-2.4s-2.4 1.075-2.4 2.4v0zM22.4 11.2h-16c-2.72 0-4.8 2.080-4.8 4.8v8c0 2.72 2.080 4.8 4.8 4.8h16c2.72 0 4.8-2.080 4.8-4.8v-8c0-2.72-2.080-4.8-4.8-4.8zM14.4 25.6c-3.040 0-5.6-2.56-5.6-5.6s2.56-5.6 5.6-5.6 5.6 2.56 5.6 5.6-2.56 5.6-5.6 5.6z"></path>
</symbol>
<symbol id="icon-staking" viewBox="0 0 32 32">
<title>staking</title>
<path d="M9.6 16c0 2.209 1.791 4 4 4s4-1.791 4-4v0c0-2.209-1.791-4-4-4s-4 1.791-4 4v0zM22.72 3.2h-13.44c-3.36 0-6.080 2.72-6.080 6.080v13.6c0 3.2 2.72 5.92 6.080 5.92h13.6c3.36 0 6.080-2.72 6.080-6.080v-13.44c-0.16-3.36-2.88-6.080-6.24-6.080zM24 17.6h-3.36c-0.8 3.2-3.52 5.6-7.040 5.6-4 0-7.2-3.2-7.2-7.2s3.2-7.2 7.2-7.2c3.36 0 6.24 2.4 7.040 5.6h3.36c0.96 0 1.6 0.64 1.6 1.6s-0.64 1.6-1.6 1.6z"></path>
</symbol>
<symbol id="icon-about-mux" viewBox="0 0 32 32">
<title>about-mux</title>
<path d="M19.2 3.2c0-0.884 0.716-1.6 1.6-1.6v0c5.302 0 9.6 4.298 9.6 9.6v0c0 0.884-0.716 1.6-1.6 1.6v0h-8c-0.884 0-1.6-0.716-1.6-1.6v0-8zM2.4 17.6c0-6.627 5.373-12 12-12v0c0.884 0 1.6 0.716 1.6 1.6v0 5.6c0 1.6 1.6 3.2 3.2 3.2h5.6c0.884 0 1.6 0.716 1.6 1.6v0c0 6.627-5.373 12-12 12s-12-5.373-12-12v0z"></path>
</symbol>
<symbol id="icon-overview" viewBox="0 0 32 32">
<title>overview</title>
<path d="M10.4 16c0 3.093 2.507 5.6 5.6 5.6s5.6-2.507 5.6-5.6v0c0-3.093-2.507-5.6-5.6-5.6s-5.6 2.507-5.6 5.6v0zM16 2.4c-7.52 0-13.6 6.080-13.6 13.6s6.080 13.6 13.6 13.6 13.6-6.080 13.6-13.6-6.080-13.6-13.6-13.6zM16 24.8c-4.8 0-8.8-4-8.8-8.8s4-8.8 8.8-8.8 8.8 4 8.8 8.8-4 8.8-8.8 8.8z"></path>
</symbol>
<symbol id="icon-more" viewBox="0 0 32 32">
<title>more</title>
<path d="M8.5 16c0 0.828 0.672 1.5 1.5 1.5s1.5-0.672 1.5-1.5v0c0-0.828-0.672-1.5-1.5-1.5s-1.5 0.672-1.5 1.5v0zM14.5 16c0 0.828 0.672 1.5 1.5 1.5s1.5-0.672 1.5-1.5v0c0-0.828-0.672-1.5-1.5-1.5s-1.5 0.672-1.5 1.5v0zM20.5 16c0 0.828 0.672 1.5 1.5 1.5s1.5-0.672 1.5-1.5v0c0-0.828-0.672-1.5-1.5-1.5s-1.5 0.672-1.5 1.5v0z"></path>
</symbol>
<symbol id="icon-margin-mode-selected" viewBox="0 0 32 32">
<title>margin-mode-selected</title>
<path d="M23.531 10.869c0.289 0.29 0.468 0.689 0.468 1.131s-0.179 0.842-0.468 1.131l-8.8 8.8c-0.29 0.289-0.689 0.468-1.131 0.468s-0.842-0.179-1.131-0.468l-4-4c-0.277-0.287-0.448-0.679-0.448-1.111 0-0.884 0.716-1.6 1.6-1.6 0.432 0 0.823 0.171 1.111 0.449l-0-0 2.869 2.869 7.669-7.669c0.29-0.289 0.689-0.468 1.131-0.468s0.842 0.179 1.131 0.468v0z"></path>
</symbol>
<symbol id="icon-message-close" viewBox="0 0 32 32">
<title>message-close</title>
<path d="M25.414 6.586c0.362 0.362 0.586 0.862 0.586 1.414s-0.224 1.052-0.586 1.414l-16 16c-0.359 0.347-0.849 0.561-1.389 0.561-1.105 0-2-0.895-2-2 0-0.54 0.214-1.030 0.562-1.39l-0.001 0.001 16-16c0.362-0.362 0.862-0.586 1.414-0.586s1.052 0.224 1.414 0.586v0zM25.414 25.414c-0.362 0.362-0.862 0.586-1.414 0.586s-1.052-0.224-1.414-0.586l-16-16c-0.347-0.359-0.561-0.849-0.561-1.389 0-1.105 0.895-2 2-2 0.54 0 1.030 0.214 1.39 0.562l-0.001-0.001 16 16c0.362 0.362 0.586 0.862 0.586 1.414s-0.224 1.052-0.586 1.414v0z"></path>
</symbol>
<symbol id="icon-staking-steps" viewBox="0 0 32 32">
<title>staking-steps</title>
<path d="M4 8c0-3.314 2.686-6 6-6v0h12c3.314 0 6 2.686 6 6v0 12c0 5.523-4.477 10-10 10v0h-8c-3.314 0-6-2.686-6-6v0-16zM10 6c-1.105 0-2 0.895-2 2v0 16c0 1.105 0.895 2 2 2v0h8c3.314 0 6-2.686 6-6v0-12c0-1.105-0.895-2-2-2v0h-12zM12 12c0-1.105 0.895-2 2-2v0h4c1.105 0 2 0.895 2 2s-0.895 2-2 2v0h-4c-1.105 0-2-0.895-2-2v0zM14 18c-1.105 0-2 0.895-2 2s0.895 2 2 2v0h4c1.105 0 2-0.895 2-2s-0.895-2-2-2v0h-4z"></path>
</symbol>
<symbol id="icon-qestion" viewBox="0 0 32 32">
<title>qestion</title>
<path d="M14.434 17.903c0-0.416 0.057-0.768 0.167-1.058 0.129-0.318 0.319-0.588 0.557-0.806l0.002-0.002c0.386-0.374 0.738-0.699 1.058-0.975 0.33-0.276 0.615-0.532 0.849-0.768 0.198-0.203 0.376-0.427 0.529-0.668l0.010-0.017c0.127-0.192 0.204-0.428 0.207-0.681v-0.001c0-0.458-0.148-0.81-0.436-1.058-0.262-0.245-0.615-0.395-1.003-0.395-0.019 0-0.039 0-0.058 0.001l0.003-0c-0.647 0-1.145 0.18-1.492 0.542-0.319 0.345-0.525 0.798-0.558 1.298l-0 0.006-3.193-0.209c0.153-1.465 0.689-2.577 1.617-3.335 0.926-0.775 2.114-1.162 3.564-1.162 0.638 0 1.231 0.089 1.782 0.271 0.566 0.165 1.066 0.418 1.494 0.766 0.428 0.345 0.766 0.773 1.014 1.285s0.374 1.098 0.374 1.762c0 0.401-0.042 0.768-0.123 1.098-0.084 0.32-0.229 0.637-0.436 0.955-0.194 0.318-0.458 0.64-0.788 0.972-0.32 0.32-0.726 0.672-1.223 1.058-0.266 0.191-0.482 0.434-0.637 0.715l-0.006 0.011c-0.103 0.205-0.164 0.447-0.167 0.703v0.602h-3.109v-0.911zM14.082 21.881c0-0.001 0-0.003 0-0.005 0-0.521 0.205-0.994 0.54-1.343l-0.001 0.001c0.342-0.345 0.817-0.559 1.341-0.559 0.010 0 0.019 0 0.029 0l-0.001-0c0.261 0 0.512 0.049 0.746 0.145 0.236 0.097 0.436 0.237 0.6 0.413l0.001 0.001c0.177 0.164 0.319 0.364 0.412 0.59l0.004 0.011c0.096 0.236 0.145 0.485 0.145 0.746 0 0.001 0 0.003 0 0.004 0 0.532-0.214 1.014-0.561 1.365l0-0c-0.348 0.334-0.821 0.539-1.342 0.539-0.002 0-0.003 0-0.005 0h0c-0.003 0-0.006 0-0.009 0-0.266 0-0.519-0.053-0.749-0.15l0.013 0.005c-0.24-0.099-0.447-0.232-0.624-0.395l0.001 0.001c-0.162-0.175-0.295-0.381-0.389-0.607l-0.005-0.014c-0.092-0.218-0.145-0.471-0.145-0.736 0-0.004 0-0.008 0-0.012v0.001z"></path>
</symbol>
<symbol id="icon-view-big" viewBox="0 0 32 32">
<title>view-big</title>
<path d="M11 9c0-1.105 0.895-2 2-2v0h10c1.105 0 2 0.895 2 2v0 10c0 1.105-0.895 2-2 2s-2-0.895-2-2v0-5.172l-10.586 10.586c-0.359 0.347-0.849 0.561-1.389 0.561-1.105 0-2-0.895-2-2 0-0.54 0.214-1.030 0.562-1.39l-0.001 0.001 10.586-10.586h-5.172c-1.105 0-2-0.895-2-2v0z"></path>
</symbol>
<symbol id="icon-swap" viewBox="0 0 32 32">
<title>swap</title>
<path d="M16 4c1.105 0 2 0.895 2 2v0 15.172l6.586-6.586c0.364-0.377 0.874-0.611 1.439-0.611 1.105 0 2 0.895 2 2 0 0.565-0.234 1.074-0.61 1.438l-0.001 0.001-10 10c-0.362 0.362-0.862 0.586-1.414 0.586s-1.052-0.224-1.414-0.586l-10-10c-0.347-0.359-0.561-0.849-0.561-1.389 0-1.105 0.895-2 2-2 0.54 0 1.030 0.214 1.39 0.562l-0.001-0.001 6.586 6.586v-15.172c0-1.105 0.895-2 2-2v0z"></path>
</symbol>
<symbol id="icon-rebate-rate" viewBox="0 0 32 32">
<title>rebate-rate</title>
<path d="M25.76 3.68c-2.56-1.28-6.080-2.080-9.76-2.080s-7.2 0.8-9.76 2.080c-2.56 1.28-4.64 3.2-4.64 5.92v12.8c0 2.72 2.080 4.64 4.64 5.92s6.080 2.080 9.76 2.080 7.2-0.8 9.76-2.080c2.56-1.28 4.64-3.2 4.64-5.92v-12.8c0-2.72-2.080-4.64-4.64-5.92zM27.2 22.4c0 0.8-0.64 2.080-2.88 3.040-2.080 1.12-4.96 1.76-8.32 1.76s-6.24-0.64-8.32-1.76c-2.24-0.96-2.88-2.24-2.88-3.040v-1.28c0.48 0.32 0.96 0.64 1.44 0.8 2.56 1.28 6.080 2.080 9.76 2.080s7.2-0.8 9.76-2.080c0.48-0.32 0.96-0.48 1.44-0.8v1.28zM27.2 16c0 0.8-0.64 2.080-2.88 3.040-2.080 1.12-4.96 1.76-8.32 1.76s-6.24-0.64-8.32-1.76c-2.24-0.96-2.88-2.24-2.88-3.040v-1.28c0.48 0.32 0.96 0.64 1.44 0.8 2.56 1.28 6.080 2.080 9.76 2.080s7.2-0.8 9.76-2.080c0.48-0.32 0.96-0.48 1.44-0.8v1.28zM24.32 12.64c-2.080 1.12-4.96 1.76-8.32 1.76s-6.24-0.64-8.32-1.76c-2.24-0.96-2.88-2.24-2.88-3.040s0.64-2.080 2.88-3.040c2.080-1.12 4.96-1.76 8.32-1.76s6.24 0.64 8.32 1.76c2.24 0.96 2.88 2.24 2.88 3.040s-0.64 2.080-2.88 3.040z"></path>
</symbol>
</defs>
</svg>
