<svg width="40" height="40" viewBox="0 0 40 40" fill="none" xmlns="http://www.w3.org/2000/svg">
<circle cx="20" cy="20" r="20" fill="#00A9B3"/>
<path d="M28.1075 24.691C27.707 24.314 27.165 24.1019 26.6231 24.1019C26.0105 24.1019 25.4215 24.3611 25.0209 24.8088C23.4187 26.5523 21.9815 27.2121 19.9316 27.2121C17.7875 27.2121 16.3031 26.5288 14.6773 24.7852C14.2532 24.3375 13.6878 24.0784 13.0752 24.0784C12.5097 24.0784 11.9913 24.2904 11.5672 24.6674C10.6719 25.4921 10.6247 26.8822 11.4494 27.7776C13.8998 30.4165 16.5152 31.5945 19.908 31.5945C23.2302 31.5945 25.7985 30.4165 28.2253 27.7776C29.05 26.9058 29.0028 25.5156 28.1075 24.691Z" fill="white"/>
<path d="M28.0604 20.3085C29.4267 20.3085 30.5344 19.2009 30.5344 17.8346C30.5344 16.4682 29.4267 15.3606 28.0604 15.3606C26.6941 15.3606 25.5864 16.4682 25.5864 17.8346C25.5864 19.2009 26.6941 20.3085 28.0604 20.3085Z" fill="white"/>
<path d="M10.6717 19.9314C9.49365 19.2246 9.11667 17.6931 9.82352 16.515L13.9704 9.61143C14.6772 8.43335 16.2087 8.05636 17.3868 8.76321C18.5649 9.47006 18.9419 11.0016 18.235 12.1797L14.0882 19.0832C13.3813 20.2378 11.8498 20.6383 10.6717 19.9314Z" fill="white"/>
<path d="M18.7064 19.9314C17.5283 19.2246 17.1513 17.6931 17.8582 16.515L22.005 9.61143C22.7119 8.43335 24.2434 8.05636 25.4215 8.76321C26.5996 9.47006 26.9766 11.0016 26.2697 12.1797L22.1228 19.0832C21.416 20.2378 19.8845 20.6383 18.7064 19.9314Z" fill="white"/>
</svg>
