<svg width="40" height="40" viewBox="0 0 40 40" fill="none" xmlns="http://www.w3.org/2000/svg">
<circle cx="20" cy="20" r="20" fill="#FA8337"/>
<path d="M28.1075 24.6912C27.707 24.3142 27.165 24.1022 26.6231 24.1022C26.0105 24.1022 25.4215 24.3614 25.0209 24.809C23.4187 26.5526 21.9815 27.2123 19.9316 27.2123C17.7875 27.2123 16.3031 26.529 14.6773 24.7855C14.2532 24.3378 13.6878 24.0786 13.0752 24.0786C12.5097 24.0786 11.9913 24.2907 11.5672 24.6677C10.6719 25.4923 10.6247 26.8825 11.4494 27.7778C13.8998 30.4167 16.5152 31.5948 19.908 31.5948C23.2302 31.5948 25.7985 30.4167 28.2253 27.7778C29.05 26.906 29.0028 25.5159 28.1075 24.6912Z" fill="white"/>
<path d="M28.0604 20.3088C29.4267 20.3088 30.5344 19.2012 30.5344 17.8348C30.5344 16.4685 29.4267 15.3608 28.0604 15.3608C26.6941 15.3608 25.5864 16.4685 25.5864 17.8348C25.5864 19.2012 26.6941 20.3088 28.0604 20.3088Z" fill="white"/>
<path d="M10.6717 19.9317C9.49365 19.2248 9.11667 17.6933 9.82352 16.5152L13.9704 9.61168C14.6772 8.43359 16.2087 8.05661 17.3868 8.76346C18.5649 9.47031 18.9419 11.0018 18.235 12.1799L14.0882 19.0835C13.3813 20.238 11.8498 20.6385 10.6717 19.9317Z" fill="white"/>
<path d="M18.7064 19.9317C17.5283 19.2248 17.1513 17.6933 17.8582 16.5152L22.005 9.61168C22.7119 8.43359 24.2434 8.05661 25.4215 8.76346C26.5996 9.47031 26.9766 11.0018 26.2697 12.1799L22.1228 19.0835C21.416 20.238 19.8845 20.6385 18.7064 19.9317Z" fill="white"/>
</svg>
