<svg width="128" height="128" viewBox="0 0 128 128" fill="none" xmlns="http://www.w3.org/2000/svg">
<path d="M64 128C99.3462 128 128 99.3462 128 64C128 28.6538 99.3462 0 64 0C28.6538 0 0 28.6538 0 64C0 99.3462 28.6538 128 64 128Z" fill="#F0B90B"/>
<path d="M40.5717 34.9521L63.75 22L86.9282 34.9521L78.407 39.7369L63.75 31.5697L49.0931 39.7369L40.5717 34.9521ZM86.9282 51.2866L78.407 46.5017L63.75 54.669L49.0931 46.5017L40.5717 51.2866V60.8563L55.2285 69.024V85.3585L63.75 90.1429L72.2713 85.3585V69.024L86.9282 60.8563V51.2866ZM86.9282 77.1908V67.6211L78.407 72.4064V81.9761L86.9282 77.1908ZM92.9787 80.5732L78.3218 88.7409V98.3106L101.5 85.3585V59.4543L92.9787 64.2387V80.5732ZM84.4575 43.1193L92.9787 47.9042V57.4739L101.5 52.6895V43.1193L92.9787 38.3345L84.4575 43.1193ZM55.2285 92.205V101.775L63.75 106.56L72.2713 101.775V92.205L63.75 96.9903L55.2285 92.205ZM40.5717 77.1908L49.0931 81.9761V72.4064L40.5717 67.6211V77.1908ZM55.2285 43.1193L63.75 47.9042L72.2713 43.1193L63.75 38.3345L55.2285 43.1193ZM34.5215 47.9042L43.0429 43.1193L34.5215 38.3345L26 43.1193V52.6895L34.5215 57.4739V47.9042ZM34.5215 64.2387L26 59.4543V85.3585L49.1782 98.3106V88.7409L34.5215 80.5732V64.2387Z" fill="#FFFDFA"/>
</svg>
