<svg width="18" height="19" viewBox="0 0 18 19" fill="none" xmlns="http://www.w3.org/2000/svg">
<circle cx="9" cy="9.5" r="9" fill="#FA8337"/>
<path fill-rule="evenodd" clip-rule="evenodd" d="M2.49112 13.2525C2.23209 13.2525 2.0747 12.941 2.17963 12.6787L5.61589 6.17341C5.82246 5.80946 6.13723 5.59961 6.55365 5.59961H8.11111C8.37015 5.59961 8.52753 5.9111 8.42261 6.17341L4.98962 12.6787C4.78305 13.0427 4.46828 13.2525 4.05186 13.2525H2.49112Z" fill="white"/>
<path fill-rule="evenodd" clip-rule="evenodd" d="M3.32426 13.2528H1.875L2.52094 12.0298L3.32426 13.2528Z" fill="white"/>
<path fill-rule="evenodd" clip-rule="evenodd" d="M7.27856 5.59961H8.73766L8.10156 6.78328L7.27856 5.59961Z" fill="white"/>
<path fill-rule="evenodd" clip-rule="evenodd" d="M15.8133 12.7317L15.4494 12.1087L13.3148 8.15437L13.0033 7.58057L12.6918 8.10191L11.859 9.61019C11.7016 9.92169 11.7016 10.3381 11.859 10.7021L12.9509 12.6792C13.1574 13.0432 13.4722 13.253 13.8886 13.253H14.8264H15.5018H16.1248L15.8133 12.7317Z" fill="white"/>
<path fill-rule="evenodd" clip-rule="evenodd" d="M8.3734 13.2525H6.81265C6.55362 13.2525 6.39624 12.941 6.50116 12.6787L9.93742 6.17341C10.144 5.80946 10.4588 5.59961 10.8752 5.59961H12.4359C12.695 5.59961 12.8523 5.9111 12.7474 6.17341L9.30788 12.6787C9.10131 13.0427 8.78982 13.2525 8.3734 13.2525Z" fill="white"/>
<path fill-rule="evenodd" clip-rule="evenodd" d="M7.64227 13.252H6.19629L6.81928 12.0684L7.64227 13.252Z" fill="white"/>
<path fill-rule="evenodd" clip-rule="evenodd" d="M11.6001 5.59961H13.0461L12.4034 6.81935L11.6001 5.59961Z" fill="white"/>
</svg>
